<svg xmlns="http://www.w3.org/2000/svg" viewBox="0 0 64 64" role="img" aria-labelledby="title desc">
  <title id="title">WeChat</title>
  <desc id="desc">Green WeChat chat bubble mark</desc>
  <path fill="#07c160" d="M25.9 12.2C14.7 12.2 5.6 19.7 5.6 29c0 5.3 3 10.2 8.1 13.3l-1.7 6.1 7.1-3.6c2.1.6 4.4.9 6.8.9 11.2 0 20.3-7.5 20.3-16.8S37.1 12.2 25.9 12.2Z"/>
  <path fill="#86efac" d="M40.3 27.7c-10 0-18.1 6.6-18.1 14.7S30.3 57 40.3 57c2 0 4-.3 5.8-.9l6.1 3.1-1.4-5.3c4.6-2.8 7.5-7.1 7.5-11.6 0-8-8.1-14.6-18-14.6Z"/>
  <circle cx="19.9" cy="27.4" r="2.2" fill="#052e16"/>
  <circle cx="32.4" cy="27.4" r="2.2" fill="#052e16"/>
  <circle cx="34.7" cy="41.4" r="2" fill="#052e16"/>
  <circle cx="46" cy="41.4" r="2" fill="#052e16"/>
</svg>
